<svg xmlns="http://www.w3.org/2000/svg" viewBox="0 0 307.73 168"><defs><style>.cls-1{fill:#000111;}.cls-2{fill:#cf3f3f;}</style></defs><title>Ресурс 2</title><g id="Слой_2" data-name="Слой 2"><g id="Слой_1-2" data-name="Слой 1"><path class="cls-1" d="M153.72,115.91c-.72,0-1.43-.74-2.38-2.17C136.64,91.06,120.22,69.56,106.93,46c-2-3.6-3.75-7.35-5.63-11.1-7.66,5.31-14.93,10.4-20.56,17.59-1,1.33-1.25,2-.24,3.6a99.28,99.28,0,0,0,6.65,9.46c2.66-3.68,5.32-7.2,7.9-10.79,2.42-3.37,2.34-3.37,4.45.39,2.43,4.22,5,8.52,7.59,12.59.93,1.48,1.25,2.5-.47,3.44a1.77,1.77,0,0,0-.55.54c-9.54,10.17-8.37,6.73.86,15.72a103.52,103.52,0,0,0,23.14,16.42c1.57.86,2.66,5.71,1.72,7.11-.7,1.1-1.56.47-2.34.16a153.22,153.22,0,0,1-41.6-24.32,235.17,235.17,0,0,1-28-27.13c-1.49-1.64-2-2.5-.47-4.77C74.56,33.05,93.72,16.24,118.74,6.62c5.63-2,11.18-4.07,18-4.77-4.14,7-7.66,13.61-11.88,19.78-1.18,1.72-4.23,2.27-6.34,3.36-1.33.63-2.11,1.1-1.56,3.13a131.59,131.59,0,0,0,7.5,19.78c5-8.28,9.78-16.18,14.63-24.16,4.37-7.19,8.83-14.31,13.13-21.5.63-1,1.2-2.16,1.64-2.24V27.23c-.68-.12-1.16.94-1.8,2.06-5.7,10.56-11.33,21.12-17.27,31.51-1.41,2.51-1.41,4.38.15,6.73,5,7.9,11,15,17.05,22.2a2.73,2.73,0,0,0,1.75,1.2Z"/><path class="cls-2" d="M163.15,61.66c0,5.32-4.22,10.17-9.31,9.86C148,71.2,144,66.59,144.3,61.43a9.63,9.63,0,0,1,9.39-9.38A9.48,9.48,0,0,1,163.15,61.66Z"/><path class="cls-1" d="M153.17,90.93a2.73,2.73,0,0,0,1.75-1.2c6-7.19,12-14.3,17.05-22.2,1.56-2.35,1.56-4.22.16-6.73-5.95-10.39-11.58-20.95-17.28-31.51-.64-1.12-1.12-2.18-1.8-2.06V0c.44.08,1,1.2,1.64,2.24,4.3,7.19,8.76,14.31,13.13,21.5,4.85,8,9.62,15.88,14.63,24.16A131.59,131.59,0,0,0,190,28.12c.55-2-.23-2.5-1.56-3.13-2.11-1.09-5.16-1.64-6.33-3.36-4.23-6.17-7.75-12.74-11.89-19.78,6.8.7,12.35,2.74,18,4.77,25,9.62,44.18,26.43,59.35,48.24,1.48,2.27,1,3.13-.47,4.77a235.17,235.17,0,0,1-28,27.13,153.22,153.22,0,0,1-41.6,24.32c-.78.31-1.64.94-2.34-.16-.94-1.4.15-6.25,1.72-7.11A103.52,103.52,0,0,0,200,87.39c9.23-9,10.4-5.55.86-15.72a1.77,1.77,0,0,0-.55-.54c-1.72-.94-1.4-2-.47-3.44,2.58-4.07,5.16-8.37,7.59-12.59,2.11-3.76,2-3.76,4.46-.39,2.58,3.59,5.23,7.11,7.89,10.79A99.28,99.28,0,0,0,226.39,56c1-1.57.78-2.27-.24-3.6-5.63-7.19-12.9-12.28-20.56-17.59C203.71,38.6,202,42.35,200,46c-13.29,23.61-29.71,45.11-44.41,67.79-1,1.43-1.66,2.17-2.38,2.17Z"/><path class="cls-1" d="M0,162.79H12.52v-2.65l-9.66-1.47L0,155.82v-6.39L2.44,147H17.27v5.21H6.3v2.43l9.75,1.51,2.77,2.78v6.63L16.38,168H0Z"/><path class="cls-1" d="M44.1,165.52V168H38.18l-1.3-3.61H28.14L26.84,168H20.92v-2.48l8-18.52h7.14ZM35,159.22l-2.52-6.93L30,159.22Z"/><path class="cls-1" d="M46.2,165.56V147h6.3v15.79h6.09V147h6.3v18.56L62.46,168H48.64Z"/><path class="cls-1" d="M68.25,147H84.72l2.43,2.43v8.7l-2.43,2.43H82.45l5.17,5.13V168H82.11l-6.89-7.44h-.67V168h-6.3Zm12.6,8.82v-3.61h-6.3v3.61Z"/><path class="cls-1" d="M110.63,149.43v16.13L108.19,168H93.41L91,165.56V149.43L93.41,147h14.78Zm-13.36,2.78v10.58h7.06V152.21Z"/><path class="cls-1" d="M114,147h6.55L127,159V147h6.3v21h-6.93l-6-11.34V168H114Z"/><path class="cls-1" d="M136.63,144.9h5.16v5.63l-3.15,4.2h-2Z"/><path class="cls-1" d="M144.73,162.79h12.52v-2.65l-9.66-1.47-2.86-2.85v-6.39l2.44-2.43H162v5.21H151v2.43l9.75,1.51,2.77,2.78v6.63L161.11,168H144.73Z"/><path class="cls-1" d="M179.51,162.79H192v-2.65l-9.66-1.47-2.85-2.85v-6.39l2.43-2.43h14.83v5.21h-11v2.43l9.74,1.51,2.78,2.78v6.63L195.89,168H179.51Z"/><path class="cls-1" d="M201.68,165.56V147H219v4.83H208v3.48h10.3v4.16H208v3.7H219V168H204.12Z"/><path class="cls-1" d="M222.39,147h6.55l6.43,12V147h6.3v21h-6.93l-6.05-11.34V168h-6.3Z"/><path class="cls-1" d="M250.45,152.21h-6.68V147h19.61v5.21h-6.63V168h-6.3Z"/><path class="cls-1" d="M265.48,147H282l2.43,2.43v8.7L282,160.56h-2.27l5.16,5.13V168h-5.5l-6.89-7.44h-.67V168h-6.3Zm12.6,8.82v-3.61h-6.3v3.61Z"/><path class="cls-1" d="M294.21,159.85l-7.27-10.71V147h6.18l4.24,7.31,4.2-7.31h6.17v2.14l-7.22,10.71V168h-6.3Z"/></g></g></svg>