<?xml version="1.0" encoding="utf-8"?>
<!-- Generator: Adobe Illustrator 22.1.0, SVG Export Plug-In . SVG Version: 6.00 Build 0)  -->
<svg version="1.1" id="Слой_1" xmlns="http://www.w3.org/2000/svg" xmlns:xlink="http://www.w3.org/1999/xlink" x="0px" y="0px"
	 viewBox="0 0 307.7 168" style="enable-background:new 0 0 307.7 168;" xml:space="preserve">
<style type="text/css">
	.st0{fill:#000111;}
	.st1{fill:#CF1515;}
</style>
<title>Ресурс 2</title>
<g id="Слой_2_1_">
	<g id="Слой_1-2">
		<path class="st0" d="M153.7,115.9c-0.7,0-1.4-0.7-2.4-2.2c-14.7-22.7-31.1-44.2-44.4-67.7c-2-3.6-3.8-7.3-5.6-11.1
			c-7.7,5.3-14.9,10.4-20.6,17.6c-1,1.3-1.3,2-0.2,3.6c2,3.3,4.3,6.4,6.7,9.5c2.7-3.7,5.3-7.2,7.9-10.8c2.4-3.4,2.3-3.4,4.4,0.4
			c2.4,4.2,5,8.5,7.6,12.6c0.9,1.5,1.3,2.5-0.5,3.4c-0.2,0.1-0.4,0.3-0.6,0.5c-9.5,10.2-8.4,6.7,0.9,15.7c6.9,6.5,14.7,12,23.1,16.4
			c1.6,0.9,2.7,5.7,1.7,7.1c-0.7,1.1-1.6,0.5-2.3,0.2c-15.1-5.9-29.1-14.1-41.6-24.3c-10.1-8.3-19.4-17.3-28-27.1
			c-1.5-1.6-2-2.5-0.5-4.8C74.6,33,93.7,16.2,118.7,6.6c5.6-2,11.2-4.1,18-4.8c-4.1,7-7.7,13.6-11.9,19.8c-1.2,1.7-4.2,2.3-6.3,3.4
			c-1.3,0.6-2.1,1.1-1.6,3.1c2,6.8,4.5,13.4,7.5,19.8c5-8.3,9.8-16.2,14.6-24.2c4.4-7.2,8.8-14.3,13.1-21.5c0.6-1,1.2-2.2,1.6-2.2
			v27.2c-0.7-0.1-1.2,0.9-1.8,2.1c-5.7,10.6-11.3,21.1-17.3,31.5c-1.4,2.5-1.4,4.4,0.1,6.7c5,7.9,11,15,17.1,22.2
			c0.4,0.6,1,1.1,1.8,1.2L153.7,115.9z"/>
		<path class="st1" d="M163.1,61.7c0,5.3-4.2,10.2-9.3,9.9c-5.8-0.3-9.8-4.9-9.5-10.1c0.1-5.1,4.3-9.3,9.4-9.4
			c5.2,0,9.5,4.3,9.5,9.5C163.2,61.6,163.2,61.6,163.1,61.7z"/>
		<path class="st0" d="M153.2,90.9c0.7-0.1,1.4-0.6,1.8-1.2c6-7.2,12-14.3,17.1-22.2c1.6-2.3,1.6-4.2,0.2-6.7
			c-5.9-10.4-11.6-21-17.3-31.5c-0.6-1.1-1.1-2.2-1.8-2.1V0c0.4,0.1,1,1.2,1.6,2.2c4.3,7.2,8.8,14.3,13.1,21.5
			c4.9,8,9.6,15.9,14.6,24.2c3-6.4,5.6-13,7.5-19.8c0.6-2-0.2-2.5-1.6-3.1c-2.1-1.1-5.2-1.6-6.3-3.4c-4.2-6.2-7.8-12.7-11.9-19.8
			c6.8,0.7,12.4,2.7,18,4.8c25,9.6,44.2,26.4,59.4,48.2c1.5,2.3,1,3.1-0.5,4.8c-8.6,9.8-17.9,18.9-28,27.1
			c-12.5,10.3-26.5,18.5-41.6,24.3c-0.8,0.3-1.6,0.9-2.3-0.2c-0.9-1.4,0.1-6.3,1.7-7.1c8.4-4.4,16.2-9.9,23.1-16.4
			c9.2-9,10.4-5.6,0.9-15.7c-0.1-0.2-0.3-0.4-0.6-0.5c-1.7-0.9-1.4-2-0.5-3.4c2.6-4.1,5.2-8.4,7.6-12.6c2.1-3.8,2-3.8,4.5-0.4
			c2.6,3.6,5.2,7.1,7.9,10.8c2.4-3,4.6-6.2,6.6-9.5c1-1.6,0.8-2.3-0.2-3.6c-5.6-7.2-12.9-12.3-20.6-17.6c-1.9,3.8-3.6,7.5-5.6,11.2
			c-13.3,23.6-29.7,45.1-44.4,67.8c-1,1.4-1.7,2.2-2.4,2.2L153.2,90.9z"/>
		<path class="st0" d="M0,162.8h12.5v-2.6l-9.7-1.5L0,155.8v-6.4l2.4-2.4h14.8v5.2h-11v2.4l9.7,1.5l2.8,2.8v6.6l-2.4,2.4H0V162.8z"
			/>
		<path class="st0" d="M44.1,165.5v2.5h-5.9l-1.3-3.6h-8.7l-1.3,3.6h-5.9v-2.5l8-18.5h7.1L44.1,165.5z M35,159.2l-2.5-6.9l-2.5,6.9
			H35z"/>
		<path class="st0" d="M46.2,165.6V147h6.3v15.8h6.1V147h6.3v18.6l-2.4,2.4H48.6L46.2,165.6z"/>
		<path class="st0" d="M68.3,147h16.5l2.4,2.4v8.7l-2.4,2.4h-2.3l5.2,5.1v2.3h-5.5l-6.9-7.4h-0.7v7.4h-6.3V147z M80.8,155.8v-3.6
			h-6.3v3.6H80.8z"/>
		<path class="st0" d="M110.6,149.4v16.1l-2.4,2.4H93.4l-2.4-2.4v-16.1l2.4-2.4h14.8L110.6,149.4z M97.3,152.2v10.6h7.1v-10.6
			L97.3,152.2z"/>
		<path class="st0" d="M114,147h6.6l6.4,12v-12h6.3v21h-6.9l-6-11.3V168H114V147z"/>
		<path class="st0" d="M136.6,144.9h5.2v5.6l-3.1,4.2h-2L136.6,144.9z"/>
		<path class="st0" d="M144.7,162.8h12.5v-2.6l-9.7-1.5l-2.9-2.9v-6.4l2.4-2.4H162v5.2h-11v2.4l9.8,1.5l2.8,2.8v6.6l-2.4,2.4h-16.4
			V162.8z"/>
		<path class="st0" d="M179.5,162.8H192v-2.6l-9.7-1.5l-2.9-2.9v-6.4l2.4-2.4h14.8v5.2h-11v2.4l9.7,1.5l2.8,2.8v6.6l-2.4,2.4h-16.4
			V162.8z"/>
		<path class="st0" d="M201.7,165.6V147H219v4.8h-11v3.5h10.3v4.2H208v3.7h11v4.8h-14.9L201.7,165.6z"/>
		<path class="st0" d="M222.4,147h6.6l6.4,12v-12h6.3v21h-6.9l-6.1-11.3V168h-6.3V147z"/>
		<path class="st0" d="M250.4,152.2h-6.7V147h19.6v5.2h-6.6V168h-6.3V152.2z"/>
		<path class="st0" d="M265.5,147H282l2.4,2.4v8.7l-2.4,2.4h-2.3l5.2,5.1v2.3h-5.5l-6.9-7.4h-0.7v7.4h-6.3L265.5,147z M278.1,155.8
			v-3.6h-6.3v3.6H278.1z"/>
		<path class="st0" d="M294.2,159.9l-7.3-10.7V147h6.2l4.2,7.3l4.2-7.3h6.2v2.1l-7.2,10.7v8.1h-6.3L294.2,159.9z"/>
	</g>
</g>
</svg>
